<mxfile host="app.diagrams.net" modified="2022-09-08T13:44:21.421Z" agent="5.0 (Windows NT 10.0; Win64; x64) AppleWebKit/537.36 (KHTML, like Gecko) Chrome/105.0.0.0 Safari/537.36" etag="TamRzrLTsNIv9bASIfRM" version="20.2.8" type="github">
  <diagram id="gXWosesJRznRrTSC_ofr" name="Page-1">
    <mxGraphModel dx="1909" dy="1189" grid="0" gridSize="10" guides="1" tooltips="1" connect="1" arrows="1" fold="1" page="1" pageScale="1" pageWidth="4681" pageHeight="3300" math="0" shadow="0">
      <root>
        <mxCell id="0" />
        <mxCell id="1" parent="0" />
        <mxCell id="BMq0w3gwBVlfmVzcVirr-1" value="" style="ellipse;html=1;shape=startState;fillColor=#000000;strokeColor=#ff0000;" parent="1" vertex="1">
          <mxGeometry x="86" y="434" width="30" height="30" as="geometry" />
        </mxCell>
        <mxCell id="BMq0w3gwBVlfmVzcVirr-2" value="" style="edgeStyle=orthogonalEdgeStyle;html=1;verticalAlign=bottom;endArrow=open;endSize=8;strokeColor=#ff0000;rounded=0;entryX=0;entryY=0.5;entryDx=0;entryDy=0;" parent="1" source="BMq0w3gwBVlfmVzcVirr-1" target="BMq0w3gwBVlfmVzcVirr-3" edge="1">
          <mxGeometry relative="1" as="geometry">
            <mxPoint x="226" y="454" as="targetPoint" />
          </mxGeometry>
        </mxCell>
        <mxCell id="BMq0w3gwBVlfmVzcVirr-9" style="edgeStyle=orthogonalEdgeStyle;rounded=0;orthogonalLoop=1;jettySize=auto;html=1;exitX=1;exitY=0.5;exitDx=0;exitDy=0;entryX=0;entryY=0.5;entryDx=0;entryDy=0;" parent="1" source="BMq0w3gwBVlfmVzcVirr-3" target="BMq0w3gwBVlfmVzcVirr-7" edge="1">
          <mxGeometry relative="1" as="geometry" />
        </mxCell>
        <mxCell id="BMq0w3gwBVlfmVzcVirr-3" value="New feature request" style="rounded=1;whiteSpace=wrap;html=1;" parent="1" vertex="1">
          <mxGeometry x="145" y="436.5" width="118" height="25" as="geometry" />
        </mxCell>
        <mxCell id="BMq0w3gwBVlfmVzcVirr-4" value="Analysis" style="rounded=1;whiteSpace=wrap;html=1;" parent="1" vertex="1">
          <mxGeometry x="362" y="387" width="69" height="25" as="geometry" />
        </mxCell>
        <mxCell id="BMq0w3gwBVlfmVzcVirr-5" value="Study" style="rounded=1;whiteSpace=wrap;html=1;" parent="1" vertex="1">
          <mxGeometry x="362" y="485" width="69" height="25" as="geometry" />
        </mxCell>
        <mxCell id="BMq0w3gwBVlfmVzcVirr-10" style="edgeStyle=orthogonalEdgeStyle;rounded=0;orthogonalLoop=1;jettySize=auto;html=1;exitX=0.5;exitY=0;exitDx=0;exitDy=0;entryX=0;entryY=0.5;entryDx=0;entryDy=0;" parent="1" source="BMq0w3gwBVlfmVzcVirr-7" target="BMq0w3gwBVlfmVzcVirr-4" edge="1">
          <mxGeometry relative="1" as="geometry" />
        </mxCell>
        <mxCell id="BMq0w3gwBVlfmVzcVirr-15" value="S" style="edgeLabel;html=1;align=center;verticalAlign=middle;resizable=0;points=[];fontSize=14;" parent="BMq0w3gwBVlfmVzcVirr-10" vertex="1" connectable="0">
          <mxGeometry x="0.1089" y="1" relative="1" as="geometry">
            <mxPoint x="7" y="1" as="offset" />
          </mxGeometry>
        </mxCell>
        <mxCell id="BMq0w3gwBVlfmVzcVirr-11" style="edgeStyle=orthogonalEdgeStyle;rounded=0;orthogonalLoop=1;jettySize=auto;html=1;exitX=0.5;exitY=1;exitDx=0;exitDy=0;entryX=0;entryY=0.5;entryDx=0;entryDy=0;" parent="1" source="BMq0w3gwBVlfmVzcVirr-7" target="BMq0w3gwBVlfmVzcVirr-5" edge="1">
          <mxGeometry relative="1" as="geometry" />
        </mxCell>
        <mxCell id="BMq0w3gwBVlfmVzcVirr-14" value="M/L" style="edgeLabel;html=1;align=center;verticalAlign=middle;resizable=0;points=[];fontSize=14;" parent="BMq0w3gwBVlfmVzcVirr-11" vertex="1" connectable="0">
          <mxGeometry x="-0.02" y="3" relative="1" as="geometry">
            <mxPoint x="14" y="3" as="offset" />
          </mxGeometry>
        </mxCell>
        <mxCell id="BMq0w3gwBVlfmVzcVirr-7" value="" style="rhombus;whiteSpace=wrap;html=1;" parent="1" vertex="1">
          <mxGeometry x="286" y="437" width="25" height="24" as="geometry" />
        </mxCell>
        <mxCell id="eBOtaoG4AacIUp0BR8DD-4" style="edgeStyle=orthogonalEdgeStyle;rounded=0;orthogonalLoop=1;jettySize=auto;html=1;entryX=0;entryY=0.5;entryDx=0;entryDy=0;exitX=0.892;exitY=0.223;exitDx=0;exitDy=0;exitPerimeter=0;" edge="1" parent="1" target="eBOtaoG4AacIUp0BR8DD-9" source="eBOtaoG4AacIUp0BR8DD-64">
          <mxGeometry relative="1" as="geometry">
            <mxPoint x="482" y="387.0799999999999" as="sourcePoint" />
            <Array as="points">
              <mxPoint x="479" y="446" />
              <mxPoint x="493" y="446" />
              <mxPoint x="493" y="299" />
            </Array>
          </mxGeometry>
        </mxCell>
        <mxCell id="eBOtaoG4AacIUp0BR8DD-19" value="Yes" style="edgeStyle=orthogonalEdgeStyle;rounded=0;orthogonalLoop=1;jettySize=auto;html=1;exitX=1;exitY=0.5;exitDx=0;exitDy=0;entryX=0.5;entryY=0;entryDx=0;entryDy=0;fontSize=14;" edge="1" parent="1" source="eBOtaoG4AacIUp0BR8DD-9" target="eBOtaoG4AacIUp0BR8DD-69">
          <mxGeometry relative="1" as="geometry">
            <mxPoint x="955" y="297.98" as="targetPoint" />
          </mxGeometry>
        </mxCell>
        <mxCell id="eBOtaoG4AacIUp0BR8DD-21" value="No" style="edgeStyle=orthogonalEdgeStyle;rounded=0;orthogonalLoop=1;jettySize=auto;html=1;exitX=0.5;exitY=1;exitDx=0;exitDy=0;fontSize=14;entryX=0;entryY=0.5;entryDx=0;entryDy=0;" edge="1" parent="1" source="eBOtaoG4AacIUp0BR8DD-9" target="eBOtaoG4AacIUp0BR8DD-20">
          <mxGeometry x="0.3333" relative="1" as="geometry">
            <mxPoint x="750" y="346" as="targetPoint" />
            <Array as="points">
              <mxPoint x="662" y="367" />
            </Array>
            <mxPoint as="offset" />
          </mxGeometry>
        </mxCell>
        <mxCell id="eBOtaoG4AacIUp0BR8DD-9" value="TS feature ready?" style="rhombus;whiteSpace=wrap;html=1;" vertex="1" parent="1">
          <mxGeometry x="557" y="279" width="210" height="39.5" as="geometry" />
        </mxCell>
        <mxCell id="eBOtaoG4AacIUp0BR8DD-34" style="edgeStyle=orthogonalEdgeStyle;rounded=0;orthogonalLoop=1;jettySize=auto;html=1;exitX=1;exitY=0.5;exitDx=0;exitDy=0;entryX=0;entryY=0.5;entryDx=0;entryDy=0;fontSize=14;" edge="1" parent="1" source="eBOtaoG4AacIUp0BR8DD-64" target="eBOtaoG4AacIUp0BR8DD-31">
          <mxGeometry relative="1" as="geometry">
            <mxPoint x="482.99199999999996" y="424.03999999999996" as="sourcePoint" />
          </mxGeometry>
        </mxCell>
        <mxCell id="eBOtaoG4AacIUp0BR8DD-44" style="edgeStyle=orthogonalEdgeStyle;rounded=0;orthogonalLoop=1;jettySize=auto;html=1;exitX=0.5;exitY=0.5;exitDx=0;exitDy=0;exitPerimeter=0;entryX=0;entryY=0.5;entryDx=0;entryDy=0;fontSize=14;" edge="1" parent="1" source="eBOtaoG4AacIUp0BR8DD-18" target="eBOtaoG4AacIUp0BR8DD-41">
          <mxGeometry relative="1" as="geometry">
            <Array as="points">
              <mxPoint x="956" y="454" />
              <mxPoint x="1012" y="454" />
            </Array>
          </mxGeometry>
        </mxCell>
        <mxCell id="eBOtaoG4AacIUp0BR8DD-18" value="" style="line;strokeWidth=2;direction=south;html=1;fontSize=14;" vertex="1" parent="1">
          <mxGeometry x="951" y="254" width="10" height="390" as="geometry" />
        </mxCell>
        <mxCell id="eBOtaoG4AacIUp0BR8DD-22" style="edgeStyle=orthogonalEdgeStyle;rounded=0;orthogonalLoop=1;jettySize=auto;html=1;exitX=1;exitY=0.5;exitDx=0;exitDy=0;entryX=0.5;entryY=1;entryDx=0;entryDy=0;fontSize=14;" edge="1" parent="1" source="eBOtaoG4AacIUp0BR8DD-20" target="eBOtaoG4AacIUp0BR8DD-69">
          <mxGeometry relative="1" as="geometry">
            <mxPoint x="956" y="367.0100000000002" as="targetPoint" />
          </mxGeometry>
        </mxCell>
        <mxCell id="eBOtaoG4AacIUp0BR8DD-20" value="TS Feature implementation" style="rounded=1;whiteSpace=wrap;html=1;" vertex="1" parent="1">
          <mxGeometry x="768.25" y="351" width="105.5" height="32" as="geometry" />
        </mxCell>
        <mxCell id="eBOtaoG4AacIUp0BR8DD-31" value="Do we have working config?" style="rhombus;whiteSpace=wrap;html=1;" vertex="1" parent="1">
          <mxGeometry x="557" y="405" width="210" height="39.5" as="geometry" />
        </mxCell>
        <mxCell id="eBOtaoG4AacIUp0BR8DD-35" style="edgeStyle=orthogonalEdgeStyle;rounded=0;orthogonalLoop=1;jettySize=auto;html=1;entryX=0;entryY=0.5;entryDx=0;entryDy=0;fontSize=14;exitX=0.927;exitY=0.655;exitDx=0;exitDy=0;exitPerimeter=0;" edge="1" parent="1" target="eBOtaoG4AacIUp0BR8DD-38" source="eBOtaoG4AacIUp0BR8DD-64">
          <mxGeometry relative="1" as="geometry">
            <mxPoint x="482" y="452" as="sourcePoint" />
          </mxGeometry>
        </mxCell>
        <mxCell id="eBOtaoG4AacIUp0BR8DD-38" value="Do we have the env. for testing?" style="rhombus;whiteSpace=wrap;html=1;" vertex="1" parent="1">
          <mxGeometry x="557" y="520" width="210" height="39.5" as="geometry" />
        </mxCell>
        <mxCell id="eBOtaoG4AacIUp0BR8DD-42" style="edgeStyle=orthogonalEdgeStyle;rounded=0;orthogonalLoop=1;jettySize=auto;html=1;exitX=0.5;exitY=0;exitDx=0;exitDy=0;entryX=0.5;entryY=0;entryDx=0;entryDy=0;fontSize=14;" edge="1" parent="1" source="eBOtaoG4AacIUp0BR8DD-41" target="eBOtaoG4AacIUp0BR8DD-64">
          <mxGeometry relative="1" as="geometry">
            <mxPoint x="457" y="381" as="targetPoint" />
            <Array as="points">
              <mxPoint x="1116" y="166" />
              <mxPoint x="471" y="166" />
            </Array>
          </mxGeometry>
        </mxCell>
        <mxCell id="eBOtaoG4AacIUp0BR8DD-43" value="Problem" style="edgeLabel;html=1;align=center;verticalAlign=middle;resizable=0;points=[];fontSize=14;" vertex="1" connectable="0" parent="eBOtaoG4AacIUp0BR8DD-42">
          <mxGeometry x="-0.2763" y="2" relative="1" as="geometry">
            <mxPoint x="-293" y="-3" as="offset" />
          </mxGeometry>
        </mxCell>
        <mxCell id="eBOtaoG4AacIUp0BR8DD-54" value="Pass" style="edgeStyle=orthogonalEdgeStyle;rounded=0;orthogonalLoop=1;jettySize=auto;html=1;exitX=0.5;exitY=1;exitDx=0;exitDy=0;entryX=0.5;entryY=0;entryDx=0;entryDy=0;fontSize=14;" edge="1" parent="1" source="eBOtaoG4AacIUp0BR8DD-41" target="eBOtaoG4AacIUp0BR8DD-45">
          <mxGeometry relative="1" as="geometry" />
        </mxCell>
        <mxCell id="eBOtaoG4AacIUp0BR8DD-41" value="Feature developer test" style="rhombus;whiteSpace=wrap;html=1;" vertex="1" parent="1">
          <mxGeometry x="1012" y="434.25" width="210" height="39.5" as="geometry" />
        </mxCell>
        <mxCell id="eBOtaoG4AacIUp0BR8DD-53" style="edgeStyle=orthogonalEdgeStyle;rounded=0;orthogonalLoop=1;jettySize=auto;html=1;exitX=0.5;exitY=1;exitDx=0;exitDy=0;entryX=0.225;entryY=0.5;entryDx=0;entryDy=0;entryPerimeter=0;fontSize=14;" edge="1" parent="1" source="eBOtaoG4AacIUp0BR8DD-45" target="eBOtaoG4AacIUp0BR8DD-52">
          <mxGeometry relative="1" as="geometry">
            <Array as="points">
              <mxPoint x="1117" y="679" />
            </Array>
          </mxGeometry>
        </mxCell>
        <mxCell id="eBOtaoG4AacIUp0BR8DD-45" value="Adapter config&amp;nbsp; template creation" style="rounded=1;whiteSpace=wrap;html=1;" vertex="1" parent="1">
          <mxGeometry x="1064.25" y="559.5" width="105.5" height="32" as="geometry" />
        </mxCell>
        <mxCell id="eBOtaoG4AacIUp0BR8DD-46" style="edgeStyle=orthogonalEdgeStyle;rounded=0;orthogonalLoop=1;jettySize=auto;html=1;exitX=0.856;exitY=0.805;exitDx=0;exitDy=0;entryX=0;entryY=0.5;entryDx=0;entryDy=0;fontSize=14;exitPerimeter=0;" edge="1" parent="1" target="eBOtaoG4AacIUp0BR8DD-49" source="eBOtaoG4AacIUp0BR8DD-64">
          <mxGeometry relative="1" as="geometry">
            <mxPoint x="484.99199999999996" y="520.04" as="sourcePoint" />
            <Array as="points">
              <mxPoint x="493" y="455" />
              <mxPoint x="493" y="699" />
              <mxPoint x="557" y="699" />
            </Array>
          </mxGeometry>
        </mxCell>
        <mxCell id="eBOtaoG4AacIUp0BR8DD-47" value="No" style="edgeStyle=orthogonalEdgeStyle;rounded=0;orthogonalLoop=1;jettySize=auto;html=1;exitX=1;exitY=0.5;exitDx=0;exitDy=0;fontSize=14;entryX=0.5;entryY=0;entryDx=0;entryDy=0;" edge="1" parent="1" source="eBOtaoG4AacIUp0BR8DD-49" target="eBOtaoG4AacIUp0BR8DD-91">
          <mxGeometry relative="1" as="geometry">
            <mxPoint x="1260" y="704" as="targetPoint" />
          </mxGeometry>
        </mxCell>
        <mxCell id="eBOtaoG4AacIUp0BR8DD-48" value="Yes" style="edgeStyle=orthogonalEdgeStyle;rounded=0;orthogonalLoop=1;jettySize=auto;html=1;exitX=0.5;exitY=1;exitDx=0;exitDy=0;entryX=0;entryY=0.5;entryDx=0;entryDy=0;fontSize=14;" edge="1" parent="1" source="eBOtaoG4AacIUp0BR8DD-49" target="eBOtaoG4AacIUp0BR8DD-51">
          <mxGeometry x="0.2956" y="1" relative="1" as="geometry">
            <Array as="points">
              <mxPoint x="662" y="780" />
            </Array>
            <mxPoint as="offset" />
          </mxGeometry>
        </mxCell>
        <mxCell id="eBOtaoG4AacIUp0BR8DD-49" value="Do we need Adapter code development?" style="rhombus;whiteSpace=wrap;html=1;" vertex="1" parent="1">
          <mxGeometry x="557" y="673" width="210" height="52.5" as="geometry" />
        </mxCell>
        <mxCell id="eBOtaoG4AacIUp0BR8DD-50" style="edgeStyle=orthogonalEdgeStyle;rounded=0;orthogonalLoop=1;jettySize=auto;html=1;exitX=1;exitY=0.5;exitDx=0;exitDy=0;fontSize=14;entryX=0.5;entryY=1;entryDx=0;entryDy=0;" edge="1" parent="1" source="eBOtaoG4AacIUp0BR8DD-51" target="eBOtaoG4AacIUp0BR8DD-91">
          <mxGeometry relative="1" as="geometry">
            <mxPoint x="1255" y="780" as="targetPoint" />
          </mxGeometry>
        </mxCell>
        <mxCell id="eBOtaoG4AacIUp0BR8DD-51" value="Adapter feature implementation" style="rounded=1;whiteSpace=wrap;html=1;" vertex="1" parent="1">
          <mxGeometry x="779" y="764" width="105.5" height="32" as="geometry" />
        </mxCell>
        <mxCell id="eBOtaoG4AacIUp0BR8DD-62" style="edgeStyle=orthogonalEdgeStyle;rounded=0;orthogonalLoop=1;jettySize=auto;html=1;exitX=0.5;exitY=0.5;exitDx=0;exitDy=0;exitPerimeter=0;entryX=0;entryY=0.5;entryDx=0;entryDy=0;fontSize=14;" edge="1" parent="1" source="eBOtaoG4AacIUp0BR8DD-52" target="eBOtaoG4AacIUp0BR8DD-55">
          <mxGeometry relative="1" as="geometry">
            <Array as="points">
              <mxPoint x="1152" y="710" />
            </Array>
          </mxGeometry>
        </mxCell>
        <mxCell id="eBOtaoG4AacIUp0BR8DD-52" value="" style="line;strokeWidth=2;direction=south;html=1;fontSize=14;" vertex="1" parent="1">
          <mxGeometry x="1144" y="653" width="16" height="116" as="geometry" />
        </mxCell>
        <mxCell id="eBOtaoG4AacIUp0BR8DD-55" value="Adapter config&amp;nbsp; and descriptor update&amp;nbsp;" style="rounded=1;whiteSpace=wrap;html=1;" vertex="1" parent="1">
          <mxGeometry x="1181" y="694" width="116" height="32" as="geometry" />
        </mxCell>
        <mxCell id="eBOtaoG4AacIUp0BR8DD-56" style="edgeStyle=orthogonalEdgeStyle;rounded=0;orthogonalLoop=1;jettySize=auto;html=1;entryX=0;entryY=0.5;entryDx=0;entryDy=0;exitX=1;exitY=0.5;exitDx=0;exitDy=0;" edge="1" parent="1" target="eBOtaoG4AacIUp0BR8DD-59" source="eBOtaoG4AacIUp0BR8DD-55">
          <mxGeometry relative="1" as="geometry">
            <mxPoint x="1438" y="796.0799999999999" as="sourcePoint" />
          </mxGeometry>
        </mxCell>
        <mxCell id="eBOtaoG4AacIUp0BR8DD-57" value="Pass" style="edgeStyle=orthogonalEdgeStyle;rounded=0;orthogonalLoop=1;jettySize=auto;html=1;exitX=1;exitY=0.5;exitDx=0;exitDy=0;fontSize=14;" edge="1" parent="1" source="eBOtaoG4AacIUp0BR8DD-59">
          <mxGeometry relative="1" as="geometry">
            <mxPoint x="1650" y="710" as="targetPoint" />
          </mxGeometry>
        </mxCell>
        <mxCell id="eBOtaoG4AacIUp0BR8DD-58" value="Problem with Adapter implementation" style="edgeStyle=orthogonalEdgeStyle;rounded=0;orthogonalLoop=1;jettySize=auto;html=1;exitX=0.5;exitY=1;exitDx=0;exitDy=0;fontSize=14;" edge="1" parent="1" source="eBOtaoG4AacIUp0BR8DD-59">
          <mxGeometry x="0.3562" relative="1" as="geometry">
            <mxPoint x="852" y="796" as="targetPoint" />
            <Array as="points">
              <mxPoint x="1491" y="730" />
              <mxPoint x="1491" y="861" />
              <mxPoint x="852" y="861" />
            </Array>
            <mxPoint as="offset" />
          </mxGeometry>
        </mxCell>
        <mxCell id="eBOtaoG4AacIUp0BR8DD-83" value="Problem with TS feature / missing config entry" style="edgeStyle=orthogonalEdgeStyle;rounded=0;orthogonalLoop=1;jettySize=auto;html=1;exitX=0.5;exitY=0;exitDx=0;exitDy=0;fontSize=14;" edge="1" parent="1" source="eBOtaoG4AacIUp0BR8DD-59">
          <mxGeometry x="-0.0284" relative="1" as="geometry">
            <mxPoint x="1429" y="690" as="sourcePoint" />
            <mxPoint x="820" y="383" as="targetPoint" />
            <Array as="points">
              <mxPoint x="1479" y="400" />
              <mxPoint x="820" y="400" />
            </Array>
            <mxPoint x="-1" as="offset" />
          </mxGeometry>
        </mxCell>
        <mxCell id="eBOtaoG4AacIUp0BR8DD-85" value="Problem with descriptors" style="edgeStyle=orthogonalEdgeStyle;rounded=0;orthogonalLoop=1;jettySize=auto;html=1;exitX=0.5;exitY=1;exitDx=0;exitDy=0;fontSize=14;" edge="1" parent="1" source="eBOtaoG4AacIUp0BR8DD-59">
          <mxGeometry relative="1" as="geometry">
            <mxPoint x="1256" y="725" as="targetPoint" />
            <Array as="points">
              <mxPoint x="1465" y="730" />
              <mxPoint x="1465" y="791" />
              <mxPoint x="1256" y="791" />
            </Array>
          </mxGeometry>
        </mxCell>
        <mxCell id="eBOtaoG4AacIUp0BR8DD-59" value="Feature developer test" style="rhombus;whiteSpace=wrap;html=1;" vertex="1" parent="1">
          <mxGeometry x="1374" y="690" width="210" height="39.5" as="geometry" />
        </mxCell>
        <mxCell id="eBOtaoG4AacIUp0BR8DD-64" value="" style="shape=ellipse;html=1;fillColor=strokeColor;fontSize=18;fontColor=#ffffff;" vertex="1" parent="1">
          <mxGeometry x="461" y="439.5" width="20" height="19" as="geometry" />
        </mxCell>
        <mxCell id="eBOtaoG4AacIUp0BR8DD-70" style="edgeStyle=orthogonalEdgeStyle;rounded=0;orthogonalLoop=1;jettySize=auto;html=1;exitX=1;exitY=0.5;exitDx=0;exitDy=0;fontSize=14;entryX=0.188;entryY=0.608;entryDx=0;entryDy=0;entryPerimeter=0;" edge="1" parent="1" source="eBOtaoG4AacIUp0BR8DD-69" target="eBOtaoG4AacIUp0BR8DD-18">
          <mxGeometry relative="1" as="geometry">
            <mxPoint x="949.5" y="327.83333333333337" as="targetPoint" />
          </mxGeometry>
        </mxCell>
        <mxCell id="eBOtaoG4AacIUp0BR8DD-69" value="" style="shape=ellipse;html=1;fillColor=strokeColor;fontSize=18;fontColor=#ffffff;" vertex="1" parent="1">
          <mxGeometry x="908" y="318.5" width="20" height="19" as="geometry" />
        </mxCell>
        <mxCell id="eBOtaoG4AacIUp0BR8DD-71" value="Yes" style="edgeStyle=orthogonalEdgeStyle;rounded=0;orthogonalLoop=1;jettySize=auto;html=1;exitX=1;exitY=0.5;exitDx=0;exitDy=0;entryX=0.5;entryY=0;entryDx=0;entryDy=0;fontSize=14;" edge="1" parent="1" target="eBOtaoG4AacIUp0BR8DD-76">
          <mxGeometry relative="1" as="geometry">
            <mxPoint x="768" y="424.75000000000006" as="sourcePoint" />
            <mxPoint x="956" y="423.98" as="targetPoint" />
          </mxGeometry>
        </mxCell>
        <mxCell id="eBOtaoG4AacIUp0BR8DD-72" value="No" style="edgeStyle=orthogonalEdgeStyle;rounded=0;orthogonalLoop=1;jettySize=auto;html=1;exitX=0.5;exitY=1;exitDx=0;exitDy=0;fontSize=14;entryX=0;entryY=0.5;entryDx=0;entryDy=0;" edge="1" parent="1" target="eBOtaoG4AacIUp0BR8DD-74">
          <mxGeometry x="0.3333" relative="1" as="geometry">
            <mxPoint x="663" y="444.5" as="sourcePoint" />
            <mxPoint x="751" y="472" as="targetPoint" />
            <Array as="points">
              <mxPoint x="663" y="493" />
            </Array>
            <mxPoint as="offset" />
          </mxGeometry>
        </mxCell>
        <mxCell id="eBOtaoG4AacIUp0BR8DD-73" style="edgeStyle=orthogonalEdgeStyle;rounded=0;orthogonalLoop=1;jettySize=auto;html=1;exitX=1;exitY=0.5;exitDx=0;exitDy=0;entryX=0.5;entryY=1;entryDx=0;entryDy=0;fontSize=14;" edge="1" parent="1" source="eBOtaoG4AacIUp0BR8DD-74" target="eBOtaoG4AacIUp0BR8DD-76">
          <mxGeometry relative="1" as="geometry">
            <mxPoint x="957" y="493.0100000000002" as="targetPoint" />
          </mxGeometry>
        </mxCell>
        <mxCell id="eBOtaoG4AacIUp0BR8DD-74" value="Config Creation" style="rounded=1;whiteSpace=wrap;html=1;" vertex="1" parent="1">
          <mxGeometry x="769.25" y="477" width="105.5" height="32" as="geometry" />
        </mxCell>
        <mxCell id="eBOtaoG4AacIUp0BR8DD-75" style="edgeStyle=orthogonalEdgeStyle;rounded=0;orthogonalLoop=1;jettySize=auto;html=1;exitX=1;exitY=0.5;exitDx=0;exitDy=0;fontSize=14;entryX=0.188;entryY=0.608;entryDx=0;entryDy=0;entryPerimeter=0;" edge="1" parent="1" source="eBOtaoG4AacIUp0BR8DD-76">
          <mxGeometry relative="1" as="geometry">
            <mxPoint x="955.9200000000001" y="453.31999999999994" as="targetPoint" />
          </mxGeometry>
        </mxCell>
        <mxCell id="eBOtaoG4AacIUp0BR8DD-76" value="" style="shape=ellipse;html=1;fillColor=strokeColor;fontSize=18;fontColor=#ffffff;" vertex="1" parent="1">
          <mxGeometry x="909" y="444.5" width="20" height="19" as="geometry" />
        </mxCell>
        <mxCell id="eBOtaoG4AacIUp0BR8DD-77" value="Yes" style="edgeStyle=orthogonalEdgeStyle;rounded=0;orthogonalLoop=1;jettySize=auto;html=1;exitX=1;exitY=0.5;exitDx=0;exitDy=0;entryX=0.5;entryY=0;entryDx=0;entryDy=0;fontSize=14;" edge="1" parent="1" target="eBOtaoG4AacIUp0BR8DD-82">
          <mxGeometry relative="1" as="geometry">
            <mxPoint x="768" y="539.75" as="sourcePoint" />
            <mxPoint x="956" y="538.98" as="targetPoint" />
          </mxGeometry>
        </mxCell>
        <mxCell id="eBOtaoG4AacIUp0BR8DD-78" value="No" style="edgeStyle=orthogonalEdgeStyle;rounded=0;orthogonalLoop=1;jettySize=auto;html=1;exitX=0.5;exitY=1;exitDx=0;exitDy=0;fontSize=14;entryX=0;entryY=0.5;entryDx=0;entryDy=0;" edge="1" parent="1" target="eBOtaoG4AacIUp0BR8DD-80">
          <mxGeometry x="0.3333" relative="1" as="geometry">
            <mxPoint x="663" y="559.5" as="sourcePoint" />
            <mxPoint x="751" y="587" as="targetPoint" />
            <Array as="points">
              <mxPoint x="663" y="608" />
            </Array>
            <mxPoint as="offset" />
          </mxGeometry>
        </mxCell>
        <mxCell id="eBOtaoG4AacIUp0BR8DD-79" style="edgeStyle=orthogonalEdgeStyle;rounded=0;orthogonalLoop=1;jettySize=auto;html=1;exitX=1;exitY=0.5;exitDx=0;exitDy=0;entryX=0.5;entryY=1;entryDx=0;entryDy=0;fontSize=14;" edge="1" parent="1" source="eBOtaoG4AacIUp0BR8DD-80" target="eBOtaoG4AacIUp0BR8DD-82">
          <mxGeometry relative="1" as="geometry">
            <mxPoint x="957" y="608.0100000000002" as="targetPoint" />
          </mxGeometry>
        </mxCell>
        <mxCell id="eBOtaoG4AacIUp0BR8DD-80" value="Environment creation / fix" style="rounded=1;whiteSpace=wrap;html=1;" vertex="1" parent="1">
          <mxGeometry x="769.25" y="592" width="105.5" height="32" as="geometry" />
        </mxCell>
        <mxCell id="eBOtaoG4AacIUp0BR8DD-81" style="edgeStyle=orthogonalEdgeStyle;rounded=0;orthogonalLoop=1;jettySize=auto;html=1;exitX=1;exitY=0.5;exitDx=0;exitDy=0;fontSize=14;entryX=0.188;entryY=0.608;entryDx=0;entryDy=0;entryPerimeter=0;" edge="1" parent="1" source="eBOtaoG4AacIUp0BR8DD-82">
          <mxGeometry relative="1" as="geometry">
            <mxPoint x="955.9200000000001" y="568.3199999999999" as="targetPoint" />
          </mxGeometry>
        </mxCell>
        <mxCell id="eBOtaoG4AacIUp0BR8DD-82" value="" style="shape=ellipse;html=1;fillColor=strokeColor;fontSize=18;fontColor=#ffffff;" vertex="1" parent="1">
          <mxGeometry x="909" y="559.5" width="20" height="19" as="geometry" />
        </mxCell>
        <mxCell id="eBOtaoG4AacIUp0BR8DD-86" value="" style="endArrow=classic;html=1;rounded=0;fontSize=14;exitX=1;exitY=0.5;exitDx=0;exitDy=0;entryX=0.082;entryY=0.797;entryDx=0;entryDy=0;entryPerimeter=0;" edge="1" parent="1" source="BMq0w3gwBVlfmVzcVirr-5" target="eBOtaoG4AacIUp0BR8DD-64">
          <mxGeometry width="50" height="50" relative="1" as="geometry">
            <mxPoint x="750" y="491" as="sourcePoint" />
            <mxPoint x="800" y="441" as="targetPoint" />
          </mxGeometry>
        </mxCell>
        <mxCell id="eBOtaoG4AacIUp0BR8DD-87" value="" style="endArrow=classic;html=1;rounded=0;fontSize=14;exitX=1;exitY=0.5;exitDx=0;exitDy=0;entryX=0.1;entryY=0.184;entryDx=0;entryDy=0;entryPerimeter=0;" edge="1" parent="1" source="BMq0w3gwBVlfmVzcVirr-4" target="eBOtaoG4AacIUp0BR8DD-64">
          <mxGeometry width="50" height="50" relative="1" as="geometry">
            <mxPoint x="750" y="491" as="sourcePoint" />
            <mxPoint x="470" y="438" as="targetPoint" />
          </mxGeometry>
        </mxCell>
        <mxCell id="eBOtaoG4AacIUp0BR8DD-92" style="edgeStyle=orthogonalEdgeStyle;rounded=0;orthogonalLoop=1;jettySize=auto;html=1;exitX=1;exitY=0.5;exitDx=0;exitDy=0;entryX=0.75;entryY=0.5;entryDx=0;entryDy=0;entryPerimeter=0;fontSize=14;" edge="1" parent="1" source="eBOtaoG4AacIUp0BR8DD-91" target="eBOtaoG4AacIUp0BR8DD-52">
          <mxGeometry relative="1" as="geometry" />
        </mxCell>
        <mxCell id="eBOtaoG4AacIUp0BR8DD-91" value="" style="shape=ellipse;html=1;fillColor=strokeColor;fontSize=18;fontColor=#ffffff;" vertex="1" parent="1">
          <mxGeometry x="946" y="730.5" width="20" height="19" as="geometry" />
        </mxCell>
        <mxCell id="eBOtaoG4AacIUp0BR8DD-107" style="edgeStyle=orthogonalEdgeStyle;rounded=0;orthogonalLoop=1;jettySize=auto;html=1;exitX=1;exitY=0.5;exitDx=0;exitDy=0;entryX=0;entryY=0.5;entryDx=0;entryDy=0;fontSize=18;fontColor=none;" edge="1" parent="1" target="eBOtaoG4AacIUp0BR8DD-103">
          <mxGeometry relative="1" as="geometry">
            <mxPoint x="2420" y="544" as="sourcePoint" />
            <Array as="points">
              <mxPoint x="2420" y="585" />
              <mxPoint x="2468" y="585" />
            </Array>
          </mxGeometry>
        </mxCell>
        <mxCell id="eBOtaoG4AacIUp0BR8DD-93" value="Release package creation" style="rounded=0;html=1;align=left;horizontal=1;verticalAlign=top;whiteSpace=wrap;fontSize=18;" vertex="1" parent="1">
          <mxGeometry x="1650" y="171" width="770" height="730" as="geometry" />
        </mxCell>
        <mxCell id="eBOtaoG4AacIUp0BR8DD-104" value="Jenkins Job" style="rounded=0;html=1;align=left;horizontal=1;verticalAlign=top;whiteSpace=wrap;fontSize=18;" vertex="1" parent="1">
          <mxGeometry x="1731" y="264" width="244" height="317" as="geometry" />
        </mxCell>
        <mxCell id="eBOtaoG4AacIUp0BR8DD-95" value="Release package" style="rounded=1;whiteSpace=wrap;html=1;" vertex="1" parent="1">
          <mxGeometry x="2535" y="702" width="105.5" height="32" as="geometry" />
        </mxCell>
        <mxCell id="eBOtaoG4AacIUp0BR8DD-97" style="edgeStyle=orthogonalEdgeStyle;rounded=0;orthogonalLoop=1;jettySize=auto;html=1;exitX=1;exitY=0.5;exitDx=0;exitDy=0;fontSize=14;entryX=0.188;entryY=0.608;entryDx=0;entryDy=0;entryPerimeter=0;" edge="1" parent="1" source="eBOtaoG4AacIUp0BR8DD-98">
          <mxGeometry relative="1" as="geometry">
            <mxPoint x="1746.9199999999996" y="309.8199999999997" as="targetPoint" />
          </mxGeometry>
        </mxCell>
        <mxCell id="eBOtaoG4AacIUp0BR8DD-98" value="" style="shape=ellipse;html=1;fillColor=strokeColor;fontSize=18;fontColor=#ffffff;" vertex="1" parent="1">
          <mxGeometry x="1700" y="301" width="20" height="19" as="geometry" />
        </mxCell>
        <mxCell id="eBOtaoG4AacIUp0BR8DD-99" value="Hadolint" style="rounded=1;whiteSpace=wrap;html=1;" vertex="1" parent="1">
          <mxGeometry x="1749" y="294.5" width="105.5" height="32" as="geometry" />
        </mxCell>
        <mxCell id="eBOtaoG4AacIUp0BR8DD-100" value="Traffic tests&lt;br&gt;NWST or Kamailio" style="rounded=1;whiteSpace=wrap;html=1;" vertex="1" parent="1">
          <mxGeometry x="1749" y="357.5" width="105.5" height="74.5" as="geometry" />
        </mxCell>
        <mxCell id="eBOtaoG4AacIUp0BR8DD-101" value="Trivy" style="rounded=1;whiteSpace=wrap;html=1;" vertex="1" parent="1">
          <mxGeometry x="1749" y="466" width="105.5" height="32" as="geometry" />
        </mxCell>
        <mxCell id="eBOtaoG4AacIUp0BR8DD-105" value="JFrog XRay" style="rounded=0;html=1;align=center;horizontal=1;verticalAlign=middle;whiteSpace=wrap;fontSize=18;" vertex="1" parent="1">
          <mxGeometry x="1731" y="600.5" width="244" height="136.5" as="geometry" />
        </mxCell>
        <mxCell id="eBOtaoG4AacIUp0BR8DD-102" value="NMAP" style="rounded=1;whiteSpace=wrap;html=1;" vertex="1" parent="1">
          <mxGeometry x="1749" y="530" width="105.5" height="32" as="geometry" />
        </mxCell>
        <mxCell id="eBOtaoG4AacIUp0BR8DD-109" style="edgeStyle=orthogonalEdgeStyle;rounded=0;orthogonalLoop=1;jettySize=auto;html=1;exitX=1;exitY=0.5;exitDx=0;exitDy=0;entryX=0.536;entryY=0.424;entryDx=0;entryDy=0;fontSize=18;fontColor=none;entryPerimeter=0;" edge="1" parent="1" source="eBOtaoG4AacIUp0BR8DD-103" target="eBOtaoG4AacIUp0BR8DD-135">
          <mxGeometry relative="1" as="geometry">
            <mxPoint x="2657" y="595.75" as="targetPoint" />
          </mxGeometry>
        </mxCell>
        <mxCell id="eBOtaoG4AacIUp0BR8DD-103" value="Release tgz created" style="rounded=1;whiteSpace=wrap;html=1;" vertex="1" parent="1">
          <mxGeometry x="2500" y="568.5" width="134" height="32" as="geometry" />
        </mxCell>
        <mxCell id="eBOtaoG4AacIUp0BR8DD-106" value="OWASP ZAP" style="rounded=0;html=1;align=left;horizontal=1;verticalAlign=top;whiteSpace=wrap;fontSize=18;" vertex="1" parent="1">
          <mxGeometry x="2113" y="266" width="244" height="317" as="geometry" />
        </mxCell>
        <mxCell id="eBOtaoG4AacIUp0BR8DD-114" value="Problems with TS feature" style="edgeStyle=orthogonalEdgeStyle;rounded=0;orthogonalLoop=1;jettySize=auto;html=1;exitX=0.5;exitY=0;exitDx=0;exitDy=0;entryX=0.5;entryY=0;entryDx=0;entryDy=0;fontSize=18;fontColor=none;" edge="1" parent="1" source="eBOtaoG4AacIUp0BR8DD-110" target="eBOtaoG4AacIUp0BR8DD-20">
          <mxGeometry relative="1" as="geometry">
            <Array as="points">
              <mxPoint x="2841" y="71" />
              <mxPoint x="821" y="71" />
            </Array>
          </mxGeometry>
        </mxCell>
        <mxCell id="eBOtaoG4AacIUp0BR8DD-110" value="Security report check&lt;br&gt;by security master" style="rhombus;whiteSpace=wrap;html=1;" vertex="1" parent="1">
          <mxGeometry x="2736" y="508" width="210" height="56.5" as="geometry" />
        </mxCell>
        <mxCell id="eBOtaoG4AacIUp0BR8DD-113" value="Problems with Adapter implementation" style="edgeStyle=orthogonalEdgeStyle;rounded=0;orthogonalLoop=1;jettySize=auto;html=1;fontSize=14;exitX=0.5;exitY=1;exitDx=0;exitDy=0;" edge="1" parent="1" source="eBOtaoG4AacIUp0BR8DD-110">
          <mxGeometry x="-0.0973" relative="1" as="geometry">
            <mxPoint x="2961" y="609" as="sourcePoint" />
            <mxPoint x="812" y="796" as="targetPoint" />
            <Array as="points">
              <mxPoint x="2841" y="1078" />
              <mxPoint x="812" y="1078" />
            </Array>
            <mxPoint as="offset" />
          </mxGeometry>
        </mxCell>
        <mxCell id="eBOtaoG4AacIUp0BR8DD-115" value="Reports" style="rounded=1;whiteSpace=wrap;html=1;" vertex="1" parent="1">
          <mxGeometry x="2532" y="426.5" width="105.5" height="32" as="geometry" />
        </mxCell>
        <mxCell id="eBOtaoG4AacIUp0BR8DD-116" value="Problems with TS feature" style="edgeStyle=orthogonalEdgeStyle;rounded=0;orthogonalLoop=1;jettySize=auto;html=1;exitX=0.5;exitY=0;exitDx=0;exitDy=0;fontSize=18;fontColor=none;" edge="1" parent="1" source="eBOtaoG4AacIUp0BR8DD-117">
          <mxGeometry relative="1" as="geometry">
            <mxPoint x="802" y="350" as="targetPoint" />
            <Array as="points">
              <mxPoint x="2997" y="41" />
              <mxPoint x="802" y="41" />
            </Array>
          </mxGeometry>
        </mxCell>
        <mxCell id="eBOtaoG4AacIUp0BR8DD-117" value="Integration testing&lt;br&gt;(Currently manual, requires deep IMS knowledge)" style="rhombus;whiteSpace=wrap;html=1;" vertex="1" parent="1">
          <mxGeometry x="2892" y="553" width="210" height="141.5" as="geometry" />
        </mxCell>
        <mxCell id="eBOtaoG4AacIUp0BR8DD-118" value="Problems with descriptors" style="edgeStyle=orthogonalEdgeStyle;rounded=0;orthogonalLoop=1;jettySize=auto;html=1;fontSize=14;exitX=0.5;exitY=1;exitDx=0;exitDy=0;entryX=0.5;entryY=1;entryDx=0;entryDy=0;" edge="1" parent="1" source="eBOtaoG4AacIUp0BR8DD-117" target="eBOtaoG4AacIUp0BR8DD-55">
          <mxGeometry relative="1" as="geometry">
            <mxPoint x="3198" y="661" as="sourcePoint" />
            <mxPoint x="1465.7599999999998" y="725.0080000000003" as="targetPoint" />
            <Array as="points">
              <mxPoint x="2980" y="695" />
              <mxPoint x="2980" y="960" />
              <mxPoint x="1239" y="960" />
            </Array>
          </mxGeometry>
        </mxCell>
        <mxCell id="eBOtaoG4AacIUp0BR8DD-119" value="Problems with Adapter implementation" style="edgeStyle=orthogonalEdgeStyle;rounded=0;orthogonalLoop=1;jettySize=auto;html=1;fontSize=14;exitX=0.5;exitY=1;exitDx=0;exitDy=0;entryX=0.5;entryY=1;entryDx=0;entryDy=0;" edge="1" parent="1" source="eBOtaoG4AacIUp0BR8DD-117" target="eBOtaoG4AacIUp0BR8DD-51">
          <mxGeometry x="-0.0973" relative="1" as="geometry">
            <mxPoint x="3204" y="609" as="sourcePoint" />
            <mxPoint x="1055" y="796" as="targetPoint" />
            <Array as="points">
              <mxPoint x="3015" y="694" />
              <mxPoint x="3015" y="1017" />
              <mxPoint x="832" y="1017" />
            </Array>
            <mxPoint as="offset" />
          </mxGeometry>
        </mxCell>
        <mxCell id="eBOtaoG4AacIUp0BR8DD-120" style="edgeStyle=orthogonalEdgeStyle;rounded=0;orthogonalLoop=1;jettySize=auto;html=1;exitX=1;exitY=0.5;exitDx=0;exitDy=0;entryX=0.225;entryY=0.5;entryDx=0;entryDy=0;entryPerimeter=0;fontSize=14;" edge="1" parent="1" target="eBOtaoG4AacIUp0BR8DD-122" source="eBOtaoG4AacIUp0BR8DD-110">
          <mxGeometry relative="1" as="geometry">
            <mxPoint x="3215" y="473.49999999999955" as="sourcePoint" />
            <Array as="points">
              <mxPoint x="3250" y="536" />
            </Array>
          </mxGeometry>
        </mxCell>
        <mxCell id="eBOtaoG4AacIUp0BR8DD-121" style="edgeStyle=orthogonalEdgeStyle;rounded=0;orthogonalLoop=1;jettySize=auto;html=1;exitX=0.5;exitY=0.5;exitDx=0;exitDy=0;exitPerimeter=0;entryX=0;entryY=0.5;entryDx=0;entryDy=0;fontSize=14;" edge="1" parent="1" target="eBOtaoG4AacIUp0BR8DD-124">
          <mxGeometry relative="1" as="geometry">
            <mxPoint x="3280" y="591.5000000000005" as="targetPoint" />
            <Array as="points">
              <mxPoint x="3280" y="582" />
              <mxPoint x="3292" y="582" />
            </Array>
            <mxPoint x="3250.999999999999" y="581.5" as="sourcePoint" />
          </mxGeometry>
        </mxCell>
        <mxCell id="eBOtaoG4AacIUp0BR8DD-122" value="" style="line;strokeWidth=2;direction=south;html=1;fontSize=14;" vertex="1" parent="1">
          <mxGeometry x="3242" y="498" width="16" height="168" as="geometry" />
        </mxCell>
        <mxCell id="eBOtaoG4AacIUp0BR8DD-123" style="edgeStyle=orthogonalEdgeStyle;rounded=0;orthogonalLoop=1;jettySize=auto;html=1;exitX=1;exitY=0.5;exitDx=0;exitDy=0;entryX=0.75;entryY=0.5;entryDx=0;entryDy=0;entryPerimeter=0;fontSize=14;" edge="1" parent="1" target="eBOtaoG4AacIUp0BR8DD-122" source="eBOtaoG4AacIUp0BR8DD-117">
          <mxGeometry relative="1" as="geometry">
            <mxPoint x="3064" y="622" as="sourcePoint" />
          </mxGeometry>
        </mxCell>
        <mxCell id="eBOtaoG4AacIUp0BR8DD-124" value="Release ready" style="rounded=1;whiteSpace=wrap;html=1;" vertex="1" parent="1">
          <mxGeometry x="3292" y="566" width="105.5" height="32" as="geometry" />
        </mxCell>
        <mxCell id="eBOtaoG4AacIUp0BR8DD-125" value="" style="endArrow=open;html=1;rounded=0;align=center;verticalAlign=bottom;dashed=1;endFill=0;labelBackgroundColor=none;fontSize=18;fontColor=none;entryX=1;entryY=0.5;entryDx=0;entryDy=0;exitX=0;exitY=1;exitDx=0;exitDy=0;" edge="1" parent="1" source="eBOtaoG4AacIUp0BR8DD-117" target="eBOtaoG4AacIUp0BR8DD-95">
          <mxGeometry relative="1" as="geometry">
            <mxPoint x="2778" y="710.33" as="sourcePoint" />
            <mxPoint x="2938" y="710.33" as="targetPoint" />
            <Array as="points">
              <mxPoint x="2945" y="718" />
            </Array>
          </mxGeometry>
        </mxCell>
        <mxCell id="eBOtaoG4AacIUp0BR8DD-126" value="Dependency" style="resizable=0;html=1;align=center;verticalAlign=top;labelBackgroundColor=none;rounded=0;fontSize=18;fontColor=none;" connectable="0" vertex="1" parent="eBOtaoG4AacIUp0BR8DD-125">
          <mxGeometry relative="1" as="geometry">
            <mxPoint x="-65" y="-31" as="offset" />
          </mxGeometry>
        </mxCell>
        <mxCell id="eBOtaoG4AacIUp0BR8DD-127" value="Creates" style="html=1;verticalAlign=bottom;labelBackgroundColor=none;endArrow=open;endFill=0;dashed=1;rounded=0;fontSize=18;fontColor=none;entryX=0;entryY=0.5;entryDx=0;entryDy=0;exitX=1;exitY=0.75;exitDx=0;exitDy=0;" edge="1" parent="1" source="eBOtaoG4AacIUp0BR8DD-93" target="eBOtaoG4AacIUp0BR8DD-95">
          <mxGeometry x="0.3062" width="160" relative="1" as="geometry">
            <mxPoint x="2420" y="620" as="sourcePoint" />
            <mxPoint x="2484" y="620" as="targetPoint" />
            <mxPoint as="offset" />
          </mxGeometry>
        </mxCell>
        <mxCell id="eBOtaoG4AacIUp0BR8DD-128" value="Creates" style="html=1;verticalAlign=bottom;labelBackgroundColor=none;endArrow=open;endFill=0;dashed=1;rounded=0;fontSize=18;fontColor=none;entryX=0;entryY=0.5;entryDx=0;entryDy=0;" edge="1" parent="1" target="eBOtaoG4AacIUp0BR8DD-115">
          <mxGeometry x="0.3036" width="160" relative="1" as="geometry">
            <mxPoint x="2420" y="442" as="sourcePoint" />
            <mxPoint x="2483.9999999999995" y="442" as="targetPoint" />
            <mxPoint as="offset" />
          </mxGeometry>
        </mxCell>
        <mxCell id="eBOtaoG4AacIUp0BR8DD-129" value="" style="endArrow=open;html=1;rounded=0;align=center;verticalAlign=bottom;dashed=1;endFill=0;labelBackgroundColor=none;fontSize=18;fontColor=none;entryX=1.001;entryY=0.465;entryDx=0;entryDy=0;entryPerimeter=0;exitX=0;exitY=0;exitDx=0;exitDy=0;" edge="1" parent="1" source="eBOtaoG4AacIUp0BR8DD-110" target="eBOtaoG4AacIUp0BR8DD-115">
          <mxGeometry relative="1" as="geometry">
            <mxPoint x="2900.75" y="444.5" as="sourcePoint" />
            <mxPoint x="2638" y="442" as="targetPoint" />
            <Array as="points">
              <mxPoint x="2789" y="442" />
            </Array>
          </mxGeometry>
        </mxCell>
        <mxCell id="eBOtaoG4AacIUp0BR8DD-130" value="Dependency" style="resizable=0;html=1;align=center;verticalAlign=top;labelBackgroundColor=none;rounded=0;fontSize=18;fontColor=none;" connectable="0" vertex="1" parent="eBOtaoG4AacIUp0BR8DD-129">
          <mxGeometry relative="1" as="geometry">
            <mxPoint x="-40" y="-30" as="offset" />
          </mxGeometry>
        </mxCell>
        <mxCell id="eBOtaoG4AacIUp0BR8DD-131" value="Config templates" style="rounded=1;whiteSpace=wrap;html=1;" vertex="1" parent="1">
          <mxGeometry x="1280" y="559.5" width="105.5" height="32" as="geometry" />
        </mxCell>
        <mxCell id="eBOtaoG4AacIUp0BR8DD-132" value="Creates" style="html=1;verticalAlign=bottom;labelBackgroundColor=none;endArrow=open;endFill=0;dashed=1;rounded=0;fontSize=18;fontColor=none;entryX=0;entryY=0.5;entryDx=0;entryDy=0;exitX=1;exitY=0.5;exitDx=0;exitDy=0;" edge="1" parent="1" target="eBOtaoG4AacIUp0BR8DD-131" source="eBOtaoG4AacIUp0BR8DD-45">
          <mxGeometry x="0.3062" width="160" relative="1" as="geometry">
            <mxPoint x="1169.75" y="574.5" as="sourcePoint" />
            <mxPoint x="1233.75" y="574.5" as="targetPoint" />
            <mxPoint as="offset" />
          </mxGeometry>
        </mxCell>
        <mxCell id="eBOtaoG4AacIUp0BR8DD-133" value="" style="endArrow=open;html=1;rounded=0;align=center;verticalAlign=bottom;dashed=1;endFill=0;labelBackgroundColor=none;fontSize=18;fontColor=none;entryX=0.5;entryY=1;entryDx=0;entryDy=0;exitX=0.516;exitY=0.02;exitDx=0;exitDy=0;exitPerimeter=0;" edge="1" parent="1" source="eBOtaoG4AacIUp0BR8DD-55" target="eBOtaoG4AacIUp0BR8DD-131">
          <mxGeometry relative="1" as="geometry">
            <mxPoint x="1463.25" y="643.9999999999998" as="sourcePoint" />
            <mxPoint x="1206.9999999999995" y="641.25" as="targetPoint" />
            <Array as="points">
              <mxPoint x="1241" y="640" />
              <mxPoint x="1333" y="640" />
            </Array>
          </mxGeometry>
        </mxCell>
        <mxCell id="eBOtaoG4AacIUp0BR8DD-134" value="Dependency" style="resizable=0;html=1;align=center;verticalAlign=top;labelBackgroundColor=none;rounded=0;fontSize=18;fontColor=none;" connectable="0" vertex="1" parent="eBOtaoG4AacIUp0BR8DD-133">
          <mxGeometry relative="1" as="geometry">
            <mxPoint x="-7" y="-29" as="offset" />
          </mxGeometry>
        </mxCell>
        <mxCell id="eBOtaoG4AacIUp0BR8DD-136" style="edgeStyle=orthogonalEdgeStyle;rounded=0;orthogonalLoop=1;jettySize=auto;html=1;exitX=0.25;exitY=0.5;exitDx=0;exitDy=0;exitPerimeter=0;fontSize=18;fontColor=none;entryX=0;entryY=0.5;entryDx=0;entryDy=0;" edge="1" parent="1" source="eBOtaoG4AacIUp0BR8DD-135" target="eBOtaoG4AacIUp0BR8DD-110">
          <mxGeometry relative="1" as="geometry">
            <mxPoint x="2735" y="537" as="targetPoint" />
            <Array as="points">
              <mxPoint x="2699" y="537" />
              <mxPoint x="2727" y="537" />
            </Array>
          </mxGeometry>
        </mxCell>
        <mxCell id="eBOtaoG4AacIUp0BR8DD-137" style="edgeStyle=orthogonalEdgeStyle;rounded=0;orthogonalLoop=1;jettySize=auto;html=1;exitX=0.75;exitY=0.5;exitDx=0;exitDy=0;exitPerimeter=0;entryX=0;entryY=0.5;entryDx=0;entryDy=0;fontSize=18;fontColor=none;" edge="1" parent="1" source="eBOtaoG4AacIUp0BR8DD-135" target="eBOtaoG4AacIUp0BR8DD-117">
          <mxGeometry relative="1" as="geometry">
            <Array as="points">
              <mxPoint x="2699" y="624" />
              <mxPoint x="2799" y="624" />
            </Array>
          </mxGeometry>
        </mxCell>
        <mxCell id="eBOtaoG4AacIUp0BR8DD-135" value="" style="line;strokeWidth=2;direction=south;html=1;fontSize=14;" vertex="1" parent="1">
          <mxGeometry x="2691" y="522.5" width="16" height="116" as="geometry" />
        </mxCell>
      </root>
    </mxGraphModel>
  </diagram>
</mxfile>
